<svg xmlns="http://www.w3.org/2000/svg" width="760" height="340" viewBox="0 0 760 340" role="img" aria-label="Benchmark bar chart comparing baseline and agent-lean-safe-coding enabled results">
  <rect width="100%" height="100%" fill="#ffffff"/>
  <text x="24" y="26" font-family="Arial, sans-serif" font-size="18" font-weight="700" fill="#0f172a">Fixture Benchmark: Baseline vs Enabled</text>
  <line x1="76" y1="286" x2="724" y2="286" stroke="#cbd5e1"/>
  <line x1="76" y1="42" x2="76" y2="286" stroke="#cbd5e1"/>
  <g font-family="Arial, sans-serif"><rect x="96" y="42" width="42" height="244" fill="#64748b" rx="3"/>
    <rect x="146" y="226" width="42" height="60" fill="#16a34a" rx="3"/>
    <text x="117" y="34" text-anchor="middle" font-size="12" fill="#334155">372</text>
    <text x="167" y="218" text-anchor="middle" font-size="12" fill="#166534">92</text>
    <text x="142" y="314" text-anchor="middle" font-size="12" fill="#334155">Added LOC</text>
    <rect x="256" y="276" width="42" height="10" fill="#64748b" rx="3"/>
    <rect x="306" y="282" width="42" height="4" fill="#16a34a" rx="3"/>
    <text x="277" y="268" text-anchor="middle" font-size="12" fill="#334155">15</text>
    <text x="327" y="274" text-anchor="middle" font-size="12" fill="#166534">6</text>
    <text x="302" y="314" text-anchor="middle" font-size="12" fill="#334155">Files</text>
    <rect x="416" y="283" width="42" height="3" fill="#64748b" rx="3"/>
    <rect x="466" y="286" width="42" height="0" fill="#16a34a" rx="3"/>
    <text x="437" y="275" text-anchor="middle" font-size="12" fill="#334155">4</text>
    <text x="487" y="278" text-anchor="middle" font-size="12" fill="#166534">0</text>
    <text x="462" y="314" text-anchor="middle" font-size="12" fill="#334155">Deps</text>
    <rect x="576" y="281" width="42" height="5" fill="#64748b" rx="3"/>
    <rect x="626" y="285" width="42" height="1" fill="#16a34a" rx="3"/>
    <text x="597" y="273" text-anchor="middle" font-size="12" fill="#334155">7</text>
    <text x="647" y="277" text-anchor="middle" font-size="12" fill="#166534">1</text>
    <text x="622" y="314" text-anchor="middle" font-size="12" fill="#334155">Risk flags</text></g>
  <rect x="548" y="20" width="14" height="14" fill="#64748b" rx="2"/>
  <text x="568" y="32" font-family="Arial, sans-serif" font-size="12" fill="#334155">Baseline</text>
  <rect x="632" y="20" width="14" height="14" fill="#16a34a" rx="2"/>
  <text x="652" y="32" font-family="Arial, sans-serif" font-size="12" fill="#334155">Enabled</text>
  <text x="24" y="334" font-family="Arial, sans-serif" font-size="11" fill="#64748b">Lower is better. Generated from benchmarks/fixtures.json by scripts/benchmark.js.</text>
</svg>
